<svg xmlns="http://www.w3.org/2000/svg" viewBox="0 0 64 64">
  <rect width="64" height="64" rx="13" fill="#211a13"/>
  <g transform="translate(0 -7) scale(0.84)" fill="#cf8f23">
<g transform="translate(32 60) rotate(-19) scale(1.0)"><path d="M0 12 C0 1,-2.4 -9,-3.6 -18" stroke="#cf8f23" stroke-width="1.7" fill="none" stroke-linecap="round"/><path d="M0 -9 q-5 -1 -8 -4 q4 4.5 8 6 z"/><g transform="rotate(-26 -3.6 -18) translate(-3.6 1)"><path d="M0.07 -37.0 L1.02 -50.1" stroke="#cf8f23" stroke-width="1" fill="none" stroke-linecap="round"/><path d="M0 -37.0 L-3.49 -47.7" stroke="#cf8f23" stroke-width="0.8" fill="none" stroke-linecap="round"/><path d="M0 -37.0 L3.00 -48.0" stroke="#cf8f23" stroke-width="0.8" fill="none" stroke-linecap="round"/><ellipse cx="-2.24" cy="-21.49" rx="1.53" ry="2.74" transform="rotate(-33.7 -2.24 -21.49)"/><ellipse cx="2.67" cy="-21.55" rx="1.77" ry="3.09" transform="rotate(40.2 2.67 -21.55)"/><ellipse cx="-2.59" cy="-24.97" rx="1.52" ry="2.56" transform="rotate(-42.3 -2.59 -24.97)"/><ellipse cx="2.05" cy="-24.96" rx="1.50" ry="2.72" transform="rotate(42.8 2.05 -24.96)"/><ellipse cx="-1.93" cy="-27.63" rx="1.48" ry="2.56" transform="rotate(-41.1 -1.93 -27.63)"/><ellipse cx="2.51" cy="-27.04" rx="1.54" ry="2.66" transform="rotate(35.4 2.51 -27.04)"/><ellipse cx="-2.03" cy="-30.77" rx="1.43" ry="2.38" transform="rotate(-33.1 -2.03 -30.77)"/><ellipse cx="1.74" cy="-29.70" rx="1.46" ry="2.22" transform="rotate(33.9 1.74 -29.70)"/><ellipse cx="-1.65" cy="-34.94" rx="1.20" ry="2.09" transform="rotate(-36.2 -1.65 -34.94)"/><ellipse cx="1.87" cy="-35.79" rx="1.09" ry="2.19" transform="rotate(44.5 1.87 -35.79)"/><ellipse cx="-1.74" cy="-38.84" rx="1.01" ry="1.92" transform="rotate(-33.8 -1.74 -38.84)"/><ellipse cx="1.11" cy="-38.46" rx="1.13" ry="1.98" transform="rotate(41.2 1.11 -38.46)"/><ellipse cx="0.14" cy="-22.50" rx="1.38" ry="2.77"/><ellipse cx="-0.23" cy="-25.63" rx="1.56" ry="2.77"/><ellipse cx="0.38" cy="-28.86" rx="1.25" ry="2.48"/><ellipse cx="0.14" cy="-33.04" rx="1.14" ry="2.56"/><ellipse cx="-0.24" cy="-35.01" rx="1.26" ry="2.18"/></g></g><g transform="translate(32 60) rotate(26) scale(0.92)"><path d="M0 12 C0 2,1.8 -9,3 -19" stroke="#cf8f23" stroke-width="1.7" fill="none" stroke-linecap="round"/><path d="M0 -5 q5 -1 8 -4 q-4 4.5 -8 6 z"/><g transform="rotate(17 3 -19) translate(3 1)"><path d="M0.05 -37.0 L-0.31 -49.6" stroke="#cf8f23" stroke-width="1" fill="none" stroke-linecap="round"/><path d="M0 -37.0 L-3.30 -49.7" stroke="#cf8f23" stroke-width="0.8" fill="none" stroke-linecap="round"/><path d="M0 -37.0 L2.72 -46.7" stroke="#cf8f23" stroke-width="0.8" fill="none" stroke-linecap="round"/><ellipse cx="-2.74" cy="-20.41" rx="1.59" ry="3.03" transform="rotate(-38.3 -2.74 -20.41)"/><ellipse cx="2.63" cy="-21.42" rx="1.65" ry="3.05" transform="rotate(38.3 2.63 -21.42)"/><ellipse cx="-2.07" cy="-25.02" rx="1.58" ry="2.74" transform="rotate(-40.8 -2.07 -25.02)"/><ellipse cx="1.80" cy="-24.05" rx="1.48" ry="2.79" transform="rotate(43.3 1.80 -24.05)"/><ellipse cx="-1.57" cy="-28.07" rx="1.48" ry="2.48" transform="rotate(-31.9 -1.57 -28.07)"/><ellipse cx="2.29" cy="-28.43" rx="1.24" ry="2.39" transform="rotate(44.5 2.29 -28.43)"/><ellipse cx="-1.56" cy="-30.99" rx="1.27" ry="2.25" transform="rotate(-40.1 -1.56 -30.99)"/><ellipse cx="1.75" cy="-30.65" rx="1.41" ry="2.37" transform="rotate(44.0 1.75 -30.65)"/><ellipse cx="-0.96" cy="-35.13" rx="1.03" ry="2.24" transform="rotate(-31.5 -0.96 -35.13)"/><ellipse cx="1.76" cy="-35.26" rx="1.23" ry="1.98" transform="rotate(42.6 1.76 -35.26)"/><ellipse cx="-0.22" cy="-22.50" rx="1.37" ry="2.93"/><ellipse cx="-0.41" cy="-26.09" rx="1.49" ry="2.59"/><ellipse cx="-0.21" cy="-28.68" rx="1.38" ry="2.58"/><ellipse cx="0.11" cy="-31.58" rx="1.06" ry="2.35"/></g></g><g transform="translate(32 60) rotate(-5) scale(1.09)"><path d="M0 12 C0 2,0.8 -9,0.4 -20" stroke="#cf8f23" stroke-width="1.7" fill="none" stroke-linecap="round"/><path d="M0 -6 q5 -1 8 -4 q-4 4.5 -8 6 z"/><path d="M0 -11 q-5 -1 -8 -4 q4 4.5 8 6 z"/><g transform="rotate(7 0.4 -20)"><path d="M-0.42 -37.0 L0.36 -51.7" stroke="#cf8f23" stroke-width="1" fill="none" stroke-linecap="round"/><path d="M0 -37.0 L-3.44 -48.5" stroke="#cf8f23" stroke-width="0.8" fill="none" stroke-linecap="round"/><path d="M0 -37.0 L2.79 -48.0" stroke="#cf8f23" stroke-width="0.8" fill="none" stroke-linecap="round"/><ellipse cx="-2.56" cy="-21.52" rx="1.45" ry="2.87" transform="rotate(-33.4 -2.56 -21.52)"/><ellipse cx="2.16" cy="-21.33" rx="1.65" ry="3.08" transform="rotate(39.1 2.16 -21.33)"/><ellipse cx="-1.85" cy="-24.76" rx="1.64" ry="2.66" transform="rotate(-43.0 -1.85 -24.76)"/><ellipse cx="1.94" cy="-24.45" rx="1.62" ry="2.61" transform="rotate(39.1 1.94 -24.45)"/><ellipse cx="-2.17" cy="-27.76" rx="1.26" ry="2.40" transform="rotate(-42.1 -2.17 -27.76)"/><ellipse cx="2.22" cy="-27.91" rx="1.35" ry="2.61" transform="rotate(37.3 2.22 -27.91)"/><ellipse cx="-1.58" cy="-30.18" rx="1.24" ry="2.45" transform="rotate(-37.6 -1.58 -30.18)"/><ellipse cx="2.18" cy="-30.14" rx="1.25" ry="2.61" transform="rotate(32.7 2.18 -30.14)"/><ellipse cx="-1.39" cy="-34.36" rx="1.24" ry="2.08" transform="rotate(-35.6 -1.39 -34.36)"/><ellipse cx="1.86" cy="-33.85" rx="1.38" ry="2.19" transform="rotate(40.7 1.86 -33.85)"/><ellipse cx="-1.33" cy="-37.93" rx="1.27" ry="2.28" transform="rotate(-38.4 -1.33 -37.93)"/><ellipse cx="1.55" cy="-38.40" rx="1.22" ry="2.16" transform="rotate(44.9 1.55 -38.40)"/><ellipse cx="-0.22" cy="-22.50" rx="1.47" ry="2.86"/><ellipse cx="-0.04" cy="-25.51" rx="1.32" ry="2.52"/><ellipse cx="0.27" cy="-28.57" rx="1.23" ry="2.43"/><ellipse cx="0.37" cy="-32.20" rx="1.13" ry="2.36"/><ellipse cx="0.38" cy="-35.82" rx="1.28" ry="2.37"/></g></g>
  </g>
</svg>
